# xmcd CD database file
#
# Track frame offsets:
#	150
#	16297
#	35577
#	57442
#	81630
#	99215
#	113172
#	124712
#	143960
#	173525
#	193657
#	209532
#	231240
#	247250
#
# Disc length: 3510 seconds
#
# Revision: 4
# Processed by: cddbd v1.5.2PL0 Copyright (c) Steve Scherf et al.
# Submitted via: CDex 1.51
#
DISCID=c80db40e
DTITLE=G. Love and Special Sauce - G. Love and Special Sauce
DYEAR=1994
DGENRE=Blues Rock
TTITLE0=The Things That I Used To Do
TTITLE1=Blues Music
TTITLE2=Garbage Man
TTITLE3=Eyes Have Miles
TTITLE4=Baby's Got Sauce
TTITLE5=Rhyme For The Summertime
TTITLE6=Cold Beverage
TTITLE7=Fatman
TTITLE8=This Ain't Living
TTITLE9=Walk To Slide
TTITLE10=Shooting Hoops
TTITLE11=Some Peoples Like That
TTITLE12=Town To Town
TTITLE13=I Love You
EXTD=YEAR: 1994
EXTT0=
EXTT1=
EXTT2=
EXTT3=
EXTT4=
EXTT5=
EXTT6=
EXTT7=
EXTT8=
EXTT9=
EXTT10=
EXTT11=
EXTT12=
EXTT13=
PLAYORDER=
